<svg width="85" height="62" viewBox="0 0 85 62" fill="none" xmlns="http://www.w3.org/2000/svg">
<path d="M57.9345 0.686951C77.7994 0.686951 84.1997 7.08723 84.1997 23.0936V58.8505C84.1997 60.5106 83.4326 61.2778 81.7724 61.2778H70.9526C69.2924 61.2778 68.5253 60.5106 68.5253 58.8505V26.8491C68.5253 17.575 66.6476 14.7126 57.1559 14.7126H27.7994C18.3078 14.7126 15.766 17.5864 15.766 26.8491V58.8505C15.766 60.5106 14.9989 61.2778 13.3387 61.2778H2.54179C0.881612 61.2778 0 60.5106 0 58.8505V23.0936C0 7.09867 6.40028 0.686951 26.2652 0.686951H57.9345Z" fill="white"/>
</svg>
